4D546864000000060001000201E04D54726B00001CFB00FF03374D697473756B69796F002D00556E77656C636F6D65005363686F6F6C0028426C7565004172636869766529007C004E6F6E73746F70326B00FF01374D697473756B69796F002D00556E77656C636F6D65005363686F6F6C0028426C7565004172636869766529007C004E6F6E73746F70326B00FF0217436F70797269676874004E6F6E73746F70326B2E636F6D00FF58040402180800FF5902000000FF510305161500B0790000640000650000060C00647F00657F00C00000B00064000040005B00005D0000FF21010000904540816F450081714840816F480081714B4081334B0081354C40714C0081774440774400794540774500794840774800794A40774A00794840774800794B40774B00794B40714B00004C4082554C0082034F40774F00794E40774E00794D40774D00794B40774B00794A40774A00794840774800794740774700794640774600794740774700794840774800794A40774A00794B40774B00794C40816F4C0081714040816F400081714540816F450081714840816F480081714B4081334B0081354C40714C0081774440774400794540774500794840774800794A40774A00794840774800794B40774B00794B40714B00004C4082554C0082034F40774F00794E42774E00794D44774D00794B46774B00794C48774C00794D4A774D00794E4C774E00794F4E774F0079445000505077440000500079445200505277440000500079455800515877450000510079455A00515A7745000051007947630053636347470000530053794060004560816F400000450081714560004860816F450000480081714560004B6081334500004B0081354860004C60714800004C0081774060004460774000004400794060004560774000004500794560004860774500004800794760004A60774700004A00794560004860774500004800794560004B60774500004B00794560004B60714500004B00004860004C6082554800004C0082034B60004F60774B00004F00794B60004E60774B00004E00794A60004D60774A00004D00794860004B60774800004B00794760004A60774700004A00794560004860774500004800794460004760774400004700794360004660774300004600794460004760774400004700794560004860774500004800794760004A60774700004A00794760004B60774700004B00794460004760004C60816F4400004700004C0081713860003B6000406071473800003B00004000194060004560816F400000450081714560004860816F450000480081714560004B6081334500004B0081354860004C60714800004C0081774060004460774000004400794060004560774000004500794560004860774500004800794760004A60774700004A00794560004860774500004800794560004B60774500004B00794560004B60714500004B00004860004C6082554800004C0082034B60004F60774B00004F00794B60004E60774B00004E00794A60004D60774A00004D00794860004B60774800004B00794860004C60774800004C00794A60004D60774A00004D00794B60004E60774B00004E00794C60004F60774C00004F00794C60005060774C00005000794C60005060774C00005000794E60005160774E00005100794E60005160774E00005100795060005360775000005300793C60004060773C00004000793F60004260773F0000420079406000446077400000440078FF510305161501904060004560816F400000450081714560004860816F450000480081714560004B6081334500004B0081354860004C60714800004C0081774060004460774000004400794060004560774000004500794560004860774500004800794760004A60774700004A00794560004860774500004800794560004B60774500004B00794560004B60714500004B00004860004C6082554800004C0082034B60004F60774B00004F00794B60004E60774B00004E00794A60004D60774A00004D00794860004B60774800004B00794760004A60774700004A00794560004860774500004800794460004760774400004700794360004660774300004600794460004760774400004700794560004860774500004800794760004A60774700004A00794760004B60774700004B00794460004760004C60816F4400004700004C0081713860003B6000406071473800003B00004000194060004560816F400000450081714560004860816F450000480081714560004B6081334500004B0081354860004C60714800004C0081774060004460774000004400794060004560774000004500794560004860774500004800794760004A60774700004A00794560004860774500004800794560004B60774500004B00794560004B60714500004B00004860004C6082554800004C0082034B60004F60774B00004F00794B60004E60774B00004E00794A60004D60774A00004D00794860004B60774800004B00794860004C60774800004C00794A60004D60774A00004D00794B60004E60774B00004E00794C60004F60774C00004F00794C60005060774C00005000794C60005060774C00005000794E60005160774E00005100794E60005160774E00005100795060005360535F50000053005361485C004C5C81634800004C0000475C004B5C774700004B0079485C004C5C774800004C00794A5C004D5C774A00004D0079485C004C5C774800004C0079475C004A5C774700004A0079455C00485C77450000480079475C004A5C774700004A0079485C004C5C81634800004C0000475C004B5C774700004B0079485C004C5C774800004C00794A5C004D5C774A00004D0079485C004C5C774800004C0079475C004A5C774700004A0079455C00485C77450000480079445C00475C77440000470079405C00455C4547400000450019455C00515C816F45000051008171445C00505C816F44000050008171435C004F5C816F4300004F008171425C004E5C816F4200004E008171415C004D5C816F4100004D0081713F5C004B5C816F3F00004B008171405C004C5C816F4000004C008171485C004C5C81634800004C0000475C004B5C774700004B0079485C004C5C774800004C00794A5C004D5C774A00004D0079485C004C5C774800004C0079475C004A5C774700004A0079455C00485C77450000480079475C004A5C774700004A0079485C004C5C81634800004C0000475C004B5C774700004B0079485C004C5C774800004C00794A5C004D5C774A00004D0079485C004C5C774800004C0079475C004A5C774700004A0079455C00485C77450000480079475C004A5C774700004A0079455C00485C004C5C816F4500004800004C008171455C00515C816F45000051008171475C00535C816F47000053008171485C00545C816F48000054008171495C00555C816F490000550081714A5C00565C816F4A0000560081714D5C00595C816F4D0000590081714B5C00575C816F4B000057008170FF51030516150190485C004C5C81634800004C0000475C004B5C774700004B0079485C004C5C774800004C00794A5C004D5C774A00004D0079485C004C5C774800004C0079475C004A5C774700004A0079455C00485C77450000480079475C004A5C774700004A0079485C004C5C81634800004C0000475C004B5C774700004B0079485C004C5C774800004C00794A5C004D5C774A00004D0079485C004C5C774800004C0079475C004A5C774700004A0079455C00485C77450000480079445C00475C77440000470079405C00455C4547400000450019455C00515C816F45000051008171445C00505C816F44000050008171435C004F5C816F4300004F008171425C004E5C816F4200004E008171415C004D5C816F4100004D0081713F5C004B5C816F3F00004B008171405C004C5C816F4000004C008171485C004C5C81634800004C0000475C004B5C774700004B0079485C004C5C774800004C00794A5C004D5C774A00004D0079485C004C5C774800004C0079475C004A5C774700004A0079455C00485C77450000480079475C004A5C774700004A0079485C004C5C81634800004C0000475C004B5C774700004B0079485C004C5C774800004C00794A5C004D5C774A00004D0079485C004C5C774800004C0079475C004A5C774700004A0079455C00485C77450000480079445C00475C77440000470079395C003C5C00455C45473900003C00004500194B5C094C5C09515C815C4C00005100014B0001485C774800794A5C004B5C00515C81634A00004B0000510000485C77480079455C8163450000485C774800794B5C094C5C09515C815C4C00005100014B0001485C774800794A5C004B5C00515C81634A00004B0000510000485C4847480085694540816F450081714840816F480081714B4081334B0081354C40714C0081774440774400794540774500794840774800794A40774A00794840774800794B40774B00794B40714B00004C4082554C0082034F40774F00794E40774E00794D40774D00794B40774B00794A40774A00794840774800794740774700794640774600794740774700794840774800794A40774A00794B40774B00794C404C474C004C794540816F450081714840816F480081714B4081334B0081354C40714C0081774440774400794540774500794840774800794A40774A00794840774800794B40774B00794B40714B00004C4082554C0082034F40774F00794E40774E00794D40774D00794B40774B00794C40774C00794D40774D00794E40774E00794F40774F007950407750007950427750007951477751007951497751007953515147530053794050004550816F400000450081714550004850816F450000480081714550004B5081334500004B0081354550004C50714500004C0081774450774400794050004550774000004500794550004850774500004800794750004A50774700004A00794550004850774500004800794750004B50774700004B00794750004B50714700004B00004850004C5082554800004C0082034B50004F50774B00004F00794B50004E50774B00004E00794A50004D50774A00004D00794850004B50774800004B00794750004A50774700004A00794550004850774500004800794450004750774400004700794350004650774300004600794450004750774400004700794550004850774500004800794750004A50774700004A00794750004B50774700004B00794750004C50816F4700004C0085514050004550816F400000450081714550004850816F450000480081714550004B5081334500004B0081354550004C50714500004C0081774450774400794050004550774000004500794550004850774500004800794750004A50774700004A00794550004850774500004800794750004B50774700004B00794750004B50714700004B00004850004C5082554800004C0082034B50004F50774B00004F00794B50004E50774B00004E00794A50004D50774A00004D00794850004B50774800004B00794850004C50774800004C00794A50004D50774A00004D00794B50004E50774B00004E00794C50004F50774C00004F00794C50005050774C00005000794C52005052774C00005000794E54005154774E00005100794E56005156774E00005100795058005358816F50000053008171535C12585C135C5C145F5C58255800005C00005F00015300015160715100004F60714F00005160715100005460715400005160715100004F60714F00005160715100005460715400005160715100004F60714F00005160715100005460715400005160715100004F60714F00005160715100005460715400005160715100004F60714F00005160715100005460715400005160715100004F60714F00004C60714C00004B60714B00004A60714A00004860714800004560714500004360714300003F60713F00003E60713E00003C60713C00003960713900003E60713E00003F60713F00004060714000004360714300004560714500004360714300004560714500004860714800004A60714A00004B60714B00004D60714D00004F60714F00005160715100005460715400005660715600005760715700004B6000526000576081634B00005200005700004C6000536000586081634C00005300005800004C6000536000586081634C00005300005800004C6000536000586081634C00005300005800004C6000506000536000586058474C0000500000530000580019516081635100005D60715D00005B60715B00005760715700005660715600005460715400005160005760715100005700005660715600005460715400005160005760715100005700005660715600005460715400005160005760715100005700005660715600005460715400005160005760715100005700005660715600005460715400005160715100005060715000005160715100004B604B4B00054A604B4A000548604B4800054A60714A00004C60714C000048604B48000545604B45000544604B4400054360714300004560714500003F604B3F00053E604B3E00053C604B3C00053E60713E00003C60713C0000396071390000376071370000396000456045473900004500193C6000486081633C00004800003760004360816337000043000039600045608163390000450000376000436081633700004300003C6000486081633C00004800003E60004A6081633E00004A00003F60004B6081633F00004B00003C6000486081633C00004800003E60004A6081633E00004A00003C6000486081633C00004800003F60004B6081633F00004B00004060004C6081634000004C00004160004D6081634100004D00003F60004B6081633F00004B00004060004C60714000004C00004560714500004C60714C00004560714500004760774700794860774800794860714800004560714500004960714900004560714500004A60714A00004560714500004B60714B00004560714500004C6081634C00004B60005160714B00005100004A60714A00004860714800004B60005160714B00005100004A60714A00004860714800004B60005160714B00005100004A60714A00004860714800004B60005160714B00005100004A60714A00004860714800004B60005160714B00005100004860714800005160715100005360715300005460715400005060715000005160715100004B60714B00004860714800004460714400004560714500004760714700004860714800004960714900004A60714A00004B60714B00004D60714D00004B60714B00004C60714C00004D60714D00005060715000005160715100005360715300005460715400005760715700005860715800005960715900005860715800005760715700005860715800005360715300005060715000004A60714A00004760714700004860714800004760714700004560714500004760714700004860714800004B60714B00004C60714C00005160715100005460715400005360715300005060715000005360715300005160715100004B60714B00004A60714A00004860714800004560004A6081634500004A00004A60714A00004860714800004560004A6081634500004A00004A60714A00004860714800004560004A6081634500004A00004C6081634C000045608163450000486081634800004B60774B00794D60774D00794F60774F0079516077510079536077530079546077540079566077560079576077570079586081635800004C6000586081634C00005800004C6000586081634C00005800004C6000586081634C00005800004C60005860870F4C00005800314C6000546000586081634C00005400005800004B60005360005760774B00005300005700794C60005460005860774C00005400005800794D60005660005960774D00005600005900794C60005460005860774C00005400005800794A60005360005660774A00005300005600794860005160005460774800005100005400794A60005360005760774A00005300005700794C6000546000586081634C00005400005800004B60005360005760774B00005300005700794C60005460005860774C00005400005800794D60005660005960774D00005600005900794C60005460005860774C00005400005800794A60005360005660774A00005300005600794860005160005460774800005100005400794760005060005360774700005000005300794560004C6000516051474500004C00005100194560005160816F450000510081714460005060816F440000500081714360004F60816F4300004F0081714260004E60816F4200004E0081714160004D60816F4100004D0081713F60004B60816F3F00004B0081714060004C60816F4000004C0081714C6000546000586081634C00005400005800004B60005360005760774B00005300005700794C60005460005860774C00005400005800794D60005660005960774D00005600005900794C60005460005860774C00005400005800794A60005360005660774A00005300005600794860005160005460774800005100005400794A60005360005760774A00005300005700794C6000546000586081634C00005400005800004B60005360005760774B00005300005700794C60005460005860774C00005400005800794D60005660005960774D00005600005900794C60005460005860774C00005400005800794A60005360005660774A00005300005600794860005160005460774800005100005400794A60005360005760774A00005300005700794C60005160005460005860816F4C0000510000540000580081714560005160816F450000510081714760005360816F470000530081714860005460816F480000540081714960005560816F490000550081714A60005660816F4A0000560081714D60005960816F4D0000590081714B60005760816F4B000057008170FF510305161501904C6000546000586081634C00005400005800004B60005360005760774B00005300005700794C60005460005860774C00005400005800794D60005660005960774D00005600005900794C60005460005860774C00005400005800794A60005360005660774A00005300005600794860005160005460774800005100005400794A60005360005760774A00005300005700794C6000546000586081634C00005400005800004B60005360005760774B00005300005700794C60005460005860774C00005400005800794D60005660005960774D00005600005900794C60005460005860774C00005400005800794A60005360005660774A00005300005600794860005160005460774800005100005400794760005060005360774700005000005300794560004C6000516051474500004C00005100194560005160816F450000510081714460005060816F440000500081714360004F60816F4300004F0081714260004E60816F4200004E0081714160004D60816F4100004D0081713F60004B60816F3F00004B0081714060004C60816F4000004C0081714C6000546000586081634C00005400005800004B60005360005760774B00005300005700794C60005460005860774C00005400005800794D60005660005960774D00005600005900794C60005460005860774C00005400005800794A60005360005660774A00005300005600794860005160005460774800005100005400794A60005360005760774A00005300005700794C6000546000586081634C00005400005800004B60005360005760774B00005300005700794C60005460005860774C00005400005800794D60005660005960774D00005600005900794C60005460005860774C00005400005800794A60005360005660774A00005300005600794860005160005460774800005100005400794760005060005360774700005000005300793960003C6000456045473900003C00004500194B60094C60095160815C4C00005100014B00014860774800794A60004B6000516081634A00004B0000510000486077480079456081634500004860774800794B60094C60095160815C4C00005100014B00014860774800794A60004B6000516081634A00004B000051000048604847480089494B50094C50095150815C4C00005100014B00014850774800794A50004B5000515081634A00004B0000510000485077480079455081634500004850774800794B50094C50095150815C4C00005100014B00014850774800794A50004B5000515081634A00004B0000510000485000FF2F004D54726B00001D2700FF03065069616E6F0000FF5902000000FF21010000903931773900793C31004031773C00004000793931773900793C31004031773C00004000793931773900793C31004031773C00004000793931773900793C31004031773C00004000793931773900793C31004031773C00004000793931773900793C31004031773C00004000793931773900793C31004031773C00004000793931773900793C31004031773C00004000793931773900793C31003F31773C00003F00793931773900793C31003F31773C00003F00793931773900793C31003F31773C00003F00793931773900793C31003F31773C00003F00793831773800793B31004031773B00004000793831773800793B31004031773B00004000793831773800793B31004031773B00004000793831773800793B31004031773B00004000793931773900793C31004031773C00004000793931773900793C31004031773C00004000793931773900793C31004031773C00004000793931773900793C31004031773C00004000793931773900793C31004031773C00004000793931773900793C31004031773C00004000793931773900793C31004031773C00004000793931773900793C31004031773C00004000792D49003949816F2D00003900010933003333770900003300790936003336770900003300792D55003955816F2D0000390001093C00333C77090000330079093F00333F770900003300792D63003963816F2D000039000109450033457709000033007957003857816F00003800012F4B00344B772F000034007964003864816F00003800012F51003451772F000034007965003865655F0000380001286C816F280081712D60772D00793460003960003C60773400003900003C00792D60772D00793460003960003C60773400003900003C00792D60772D00793460003960003C60773400003900003C00792D60772D00793460003960003C60773400003900003C00790960770900793960003C60004060773900003C00004000790960770900793960003C60004060773900003C00004000790960770900793960003C60004060773900003C00004000790960770900793960003C60004060773900003C00004000792960772900790960003360003960770900003300003900792960772900790960003360003960770900003300003900792960772900790960003360003960770900003300003900792960772900790960003360003960770900003300003900792860772800792F60003460003860772F00003400003800792860772800792F60003460003860772F00003400003800793460003B60004060816F3400003B000040008171286071472800192D60772D00793460003960003C60773400003900003C00792D60772D00793460003960003C60773400003900003C00792D60772D00793460003960003C60773400003900003C00792D60772D00793460003960003C60773400003900003C00790960770900793960003C60004060773900003C00004000790960770900793960003C60004060773900003C00004000790960770900793960003C60004060773900003C00004000790960770900793960003C60004060773900003C00004000792960772900790960003360003960770900003300003900792960772900790960003360003960770900003300003900792960772900790960003360003960770900003300003900792960772900790960003360003960770900003300003900792860772800792F60003460003860772F00003400003800792860772800792F60003460003860772F00003400003800793460003B60004060773400003B00004000792860772800792A60772A0079607700792D60772D00793460003960003C60773400003900003C00792D60772D00793460003960003C60773400003900003C00792D60772D00793460003960003C60773400003900003C00792D60772D00793460003960003C60773400003900003C00790960770900793960003C60004060773900003C00004000790960770900793960003C60004060773900003C00004000790960770900793960003C60004060773900003C00004000790960770900793960003C60004060773900003C00004000792960772900790960003360003960770900003300003900792960772900790960003360003960770900003300003900792960772900790960003360003960770900003300003900792960772900790960003360003960770900003300003900792860772800792F60003460003860772F00003400003800792860772800792F60003460003860772F00003400003800793460003B60004060816F3400003B000040008171286071472800192D60772D00793460003960003C60773400003900003C00792D60772D00793460003960003C60773400003900003C00792D60772D00793460003960003C60773400003900003C00792D60772D00793460003960003C60773400003900003C00790960770900793960003C60004060773900003C00004000790960770900793960003C60004060773900003C00004000790960770900793960003C60004060773900003C00004000790960770900793960003C60004060773900003C00004000792960772900790960003360003960770900003300003900792960772900790960003360003960770900003300003900792960772900790960003360003960770900003300003900792960772900790960003360003960770900003300003900792860772800792F60003460003860772F00003400003800792860772800792F60003460003860772F00003400003800793460003B60004060773400003B00004000792860003460772800003400792A60003660772A000036007960003860770000380079325C77320079395C003E5C00415C773900003E0000410079325C77320079395C003E5C00415C773900003E0000410079325C77320079395C003E5C00415C773900003E0000410079325C77320079395C003E5C00415C773900003E0000410079345C77340079385C003B5C00405C773800003B0000400079345C77340079385C003B5C00405C773800003B0000400079345C77340079385C003B5C00405C773800003B0000400079345C77340079385C003B5C00405C773800003B00004000792D5C772D0079345C00395C003C5C773400003900003C00792D5C772D0079345C00395C003C5C773400003900003C00792D5C772D0079345C00395C003C5C773400003900003C00792D5C772D0079345C00395C003C5C773400003900003C0079095C77090079365C003A5C003E5C773600003A00003E0079095C77090079365C003A5C003E5C773600003A00003E0079095C77090079095C00375C003A5C770900003700003A0079325C00395C003C5C773200003900003C0079345C003A5C003E5C773400003A00003E0079325C77320079395C003E5C00415C773900003E0000410079325C77320079395C003E5C00415C773900003E0000410079325C77320079395C003E5C00415C773900003E0000410079325C77320079395C003E5C00415C773900003E0000410079345C77340079385C003B5C00405C773800003B0000400079345C77340079385C003B5C00405C773800003B0000400079345C77340079385C003B5C00405C773800003B0000400079345C77340079385C003B5C00405C773800003B00004000792D5C772D0079345C00395C003C5C773400003900003C00792D5C772D0079345C00395C003C5C773400003900003C00792D5C772D0079345C00395C003C5C773400003900003C00792D5C772D0079345C00395C003C5C773400003900003C0079095C77090079365C003A5C003E5C773600003A00003E0079095C77090079365C003A5C003E5C773600003A00003E0079095C77090079095C00375C003A5C770900003700003A0079325C00395C003C5C773200003900003C0079345C003A5C003E5C773400003A00003E0079325C77320079395C003E5C00415C773900003E0000410079325C77320079395C003E5C00415C773900003E0000410079325C77320079395C003E5C00415C773900003E0000410079325C77320079395C003E5C00415C773900003E0000410079345C77340079385C003B5C00405C773800003B0000400079345C77340079385C003B5C00405C773800003B0000400079345C77340079385C003B5C00405C773800003B0000400079345C77340079385C003B5C00405C773800003B00004000792D5C772D0079345C00395C003C5C773400003900003C00792D5C772D0079345C00395C003C5C773400003900003C00792D5C772D0079345C00395C003C5C773400003900003C00792D5C772D0079345C00395C003C5C773400003900003C0079095C77090079365C003A5C003E5C773600003A00003E0079095C77090079365C003A5C003E5C773600003A00003E0079095C77090079095C00375C003A5C770900003700003A0079325C00395C003C5C773200003900003C0079345C003A5C003E5C773400003A00003E0079325C77320079395C003E5C00415C773900003E0000410079325C77320079395C003E5C00415C773900003E0000410079325C77320079395C003E5C00415C773900003E0000410079325C77320079395C003E5C00415C773900003E0000410079345C77340079385C003B5C00405C773800003B0000400079345C77340079385C003B5C00405C773800003B0000400079345C77340079385C003B5C00405C773800003B0000400079345C77340079385C003B5C00405C773800003B00004000792D5C79472D009469285C00345C81632800003400002A5B00365B81632A00003600005A00385A816300003800002D31772D00793C31004031773C00004000792D31772D00793C31004031773C00004000792D31772D00793C31004031773C00004000792D31772D00793C31004031773C00004000790931770900793C31004031773C00004000790931770900793C31004031773C00004000790931770900793C31004031773C0000400084592931772900793C31003F31773C00003F00792931772900793C31003F31773C00003F00792931772900793C31003F31773C00003F00792931772900793C31003F31773C00003F00792831772800793B31004031773B00004000792831772800793B31004031773B00004000792831772800793B31004031773B0000400079283177280082692D31772D00793C31004031773C00004000792D31772D00793C31004031773C00004000792D31772D00793C31004031773C00004000792D31772D00793C31004031773C00004000790931770900793C31004031773C00004000790931770900793C31004031773C00004000790931770900793C31004031773C0000400084592931772900793C31003F31773C00003F00792931772900793C31003F31773C00003F00792931772900793C31003F31773C00003F00792931772900793C31003F31773C00003F00792831772800793B34004034773B00004000792838772800793B3C00403C773B00004000792840772800793B44004044773B00004000793D48004248773D00004200793F4C00444C773F00004400792D50772D00793C50004050773C00004000792D50772D00793C50004050773C00004000792D50772D00793C50004050713C00004000002D50772D0081712D50772D00790950770900793C50004050773C00004000790950770900793C50004050773C00004000790950770900793C50004050713C0000400000095077090081710950770900792950772900793C50003F50773C00003F00792950772900793C50003F50773C00003F00792950772900793C50003F50713C00003F0000295077290081712950772900792850772800793B50004050773B00004000792850772800793B50004050773B00004000792850772800793B50004050713B0000400000285077280081712850772800792D50772D00793C50004050773C00004000792D50772D00793C50004050773C00004000792D50772D00793C50004050713C00004000002D50772D0081712D50772D00790950770900793C50004050773C00004000790950770900793C50004050773C00004000790950770900793C50004050713C0000400000095077090081710950770900792950772900793C50003F50773C00003F00792950772900793C50003F50773C00003F00792950772900793C50003F50713C00003F0000295077290081712950772900792850772800793B52004052773B00004000792854772800793B56004056773B00004000792858772800793B5A00405A713B0000400000285B7728008171285E772800792D60772D00793460003960003C60773400003900003C00792D60772D00793460003960003C60773400003900003C00792D60772D00793460003960003C60773400003900003C00792D60772D00793460003960003C60773400003900003C00790960770900793960003C60004060773900003C00004000790960770900793960003C60004060773900003C00004000790960770900793960003C60004060773900003C00004000790960770900792D60772D00792960772900790960003360003960770900003300003900792960772900790960003360003960770900003300003900792960772900790960003360003960770900003300003900792960772900790960003360003960770900003300003900792860772800792F60003460003860772F00003400003800792860772800792F60003460003860772F00003400003800793460003B60004060816F3400003B000040008171286000346071472800003400192D60772D00793460003960003C60773400003900003C00792D60772D00793460003960003C60773400003900003C00792D60772D00793460003960003C60773400003900003C00792D60772D00793460003960003C60773400003900003C00790960770900793960003C60004060773900003C00004000790960770900793960003C60004060773900003C00004000790960770900793960003C60773900003C00790960770900792860772800792960772900790960003360770900003300792960772900790960003360770900003300792960772900790960003360770900003300792960772900790960003360003960770900003300003900792860772800792F60003460003860772F00003400003800792860772800792F60003460003860772F00003400003800793460003B60004060816F3400003B000040008171286000346077280000340079600038607700003800792D60772D00793460003960003C60773400003900003C00792D60772D00793460003960003C60773400003900003C00792D60772D00793460003960003C60773400003900003C00792D60772D00793460003960003C60773400003900003C00790960770900793960003C60004060773900003C00004000790960770900793960003C60004060773900003C00004000790960770900793960003C60004060773900003C00004000790960770900793960003C60004060773900003C00004000792960772900790960003360003960770900003300003900792960772900790960003360003960770900003300003900792960772900790960003360003960770900003300003900792960772900790960003360003960770900003300003900792860772800792F60003460003860772F00003400003800792860772800792F60003460003860772F00003400003800793460003B60004060816F3400003B000040008171286000346071472800003400192D60772D00793460003960003C60773400003900003C00792D60772D00793460003960003C60773400003900003C00792D60772D00793460003960003C60773400003900003C00792D60772D00793460003960003C60773400003900003C00790960770900793960003C60004060773900003C00004000790960770900793960003C60004060773900003C00004000790960770900793960003C60004060773900003C00004000790960770900793960003C60004060773900003C00004000792960772900790960003360003960770900003300003900792960772900790960003360003960770900003300003900792960772900790960003360003960770900003300003900792960772900790960003360003960770900003300003900792860772800792F60003460003860772F00003400003800792860772800792F60003460003860772F00003400003800793460003B60004060816F3400003B000040008171286000346071472800003400193260773200793960003E60004160773900003E00004100793260773200793960003E60004160773900003E00004100793260773200793960003E60004160773900003E00004100793260773200793960003E60004160773900003E00004100793460773400793860003B60004060773800003B00004000793460773400793860003B60004060773800003B00004000793460773400793860003B60004060773800003B00004000793460773400793860003B60004060773800003B00004000792D60772D00793460003960003C60773400003900003C00792D60772D00793460003960003C60773400003900003C00792D60772D00793460003960003C60773400003900003C00792D60772D00793460003960003C60773400003900003C00790960770900793660003A60003E60773600003A00003E00790960770900793660003A60003E60773600003A00003E00790960770900790960003760003A60770900003700003A00793260003960003C60773200003900003C00793460003A60003E60773400003A00003E00793260773200793960003E60004160773900003E00004100793260773200793960003E60004160773900003E00004100793260773200793960003E60004160773900003E00004100793260773200793960003E60004160773900003E00004100793460773400793860003B60004060773800003B00004000793460773400793860003B60004060773800003B00004000793460773400793860003B60004060773800003B00004000793460773400793860003B60004060773800003B00004000792D60772D00793460003960003C60773400003900003C00792D60772D00793460003960003C60773400003900003C00792D60772D00793460003960003C60773400003900003C00792D60772D00793460003960003C60773400003900003C00790960770900793660003A60003E60773600003A00003E00790960770900793660003A60003E60773600003A00003E00790960770900790960003760003A60770900003700003A00793260003960003C60773200003900003C00793460003A60003E60773400003A00003E00793260773200793960003E60004160773900003E00004100793260773200793960003E60004160773900003E00004100793260773200793960003E60004160773900003E00004100793260773200793960003E60004160773900003E00004100793460773400793860003B60004060773800003B00004000793460773400793860003B60004060773800003B00004000793460773400793860003B60004060773800003B00004000793460773400793860003B60004060773800003B00004000792D60772D00793460003960003C60773400003900003C00792D60772D00793460003960003C60773400003900003C00792D60772D00793460003960003C60773400003900003C00792D60772D00793460003960003C60773400003900003C00790960770900793660003A60003E60773600003A00003E00790960770900793660003A60003E60773600003A00003E00790960770900790960003760003A60770900003700003A00793260003960003C60773200003900003C00793460003A60003E60773400003A00003E00793260773200793960003E60004160773900003E00004100793260773200793960003E60004160773900003E00004100793260773200793960003E60004160773900003E00004100793260773200793960003E60004160773900003E00004100793460773400793860003B60004060773800003B00004000793460773400793860003B60004060773800003B00004000793460773400793860003B60004060773800003B00004000793460773400793860003B60004060773800003B00004000792D6079472D0096591C6059471C001915600021604747150000210000FF2F00
